<svg width="1877" height="1858" viewBox="0 0 1877 1858" fill="none" xmlns="http://www.w3.org/2000/svg">
<path d="M1779.52 919.2C1779.52 1383.91 1402.79 1760.63 938.07 1760.63C473.35 1760.63 96.6299 1383.91 96.6299 919.2C96.6299 454.49 473.35 77.75 938.07 77.75C1402.79 77.75 1779.52 454.48 1779.52 919.2Z" fill="url(#paint0_linear_174_2)"/>
<g style="mix-blend-mode:overlay">
<path d="M938.07 97.71C1399.45 97.71 1773.88 469.09 1779.28 929.17C1779.31 925.84 1779.52 922.53 1779.52 919.2C1779.52 454.48 1402.79 77.75 938.07 77.75C473.35 77.75 96.6299 454.48 96.6299 919.2C96.6299 922.53 96.8399 925.84 96.8899 929.17C102.25 469.08 476.69 97.71 938.07 97.71Z" fill="white"/>
</g>
<g style="mix-blend-mode:multiply">
<path d="M937.16 1740.64C475.8 1740.64 101.36 1369.25 95.9597 909.18C95.9297 912.52 95.7197 915.84 95.7197 919.15C95.7197 1383.9 472.46 1760.63 937.17 1760.63C1401.88 1760.63 1778.62 1383.9 1778.62 919.15C1778.62 915.84 1778.4 912.52 1778.38 909.18C1772.99 1369.24 1398.55 1740.64 937.17 1740.64H937.16Z" fill="#DBD1C1"/>
</g>
<path d="M1649.43 919.2C1649.43 1312.08 1330.97 1630.57 938.08 1630.57C545.19 1630.57 226.72 1312.08 226.72 919.2C226.72 526.32 545.2 207.85 938.07 207.85C1330.94 207.85 1649.42 526.33 1649.42 919.2H1649.43Z" fill="#911711"/>
<path d="M1526.36 382.18C1512.36 396.18 1489.5 396.07 1475.33 381.88C1461.16 367.7 1461.01 344.85 1475.01 330.85C1489.01 316.82 1511.87 316.98 1526.04 331.14C1540.24 345.33 1540.36 368.18 1526.36 382.18Z" fill="#B00F0F"/>
<path d="M1575.29 366.39C1551.93 389.74 1514.13 389.77 1490.78 366.44C1467.41 343.09 1467.41 305.23 1490.78 281.88C1514.13 258.56 1551.96 258.52 1575.3 281.88C1598.65 305.23 1598.6 343.06 1575.28 366.39H1575.29Z" fill="url(#paint1_radial_174_2)"/>
<path opacity="0.08" d="M1597.1 388.2C1561.65 423.66 1504.21 423.7 1468.79 388.26C1433.36 352.81 1433.32 295.34 1468.79 259.9C1504.22 224.43 1561.7 224.47 1597.13 259.9C1632.58 295.34 1632.55 352.78 1597.1 388.21V388.2Z" fill="#FFC66F"/>
<path opacity="0.17" d="M1592.96 384.06C1559.79 417.23 1506.07 417.27 1472.92 384.11C1439.78 350.95 1439.74 297.18 1472.92 264.03C1506.06 230.85 1559.84 230.89 1592.98 264.03C1626.14 297.19 1626.12 350.92 1592.95 384.06H1592.96Z" fill="#FFCB78"/>
<path opacity="0.25" d="M1588.82 379.92C1557.94 410.8 1507.92 410.84 1477.06 379.97C1446.2 349.1 1446.18 299.04 1477.06 268.17C1507.91 237.28 1557.98 237.31 1588.84 268.17C1619.72 299.04 1619.69 349.06 1588.82 379.92Z" fill="#FFCF81"/>
<path opacity="0.33" d="M1584.68 375.79C1556.09 404.38 1509.77 404.42 1481.2 375.83C1452.63 347.25 1452.61 300.89 1481.2 272.32C1509.77 243.72 1556.13 243.75 1584.7 272.32C1613.29 300.9 1613.26 347.22 1584.68 375.79Z" fill="#FFD38A"/>
<path opacity="0.42" d="M1580.54 371.65C1554.24 397.95 1511.62 397.99 1485.34 371.69C1459.05 345.39 1459.04 302.75 1485.34 276.46C1511.62 250.15 1554.27 250.17 1580.56 276.46C1606.86 302.75 1606.83 345.37 1580.54 371.66V371.65Z" fill="#FFD893"/>
<path opacity="0.5" d="M1576.4 367.51C1552.38 391.52 1513.47 391.56 1489.47 367.54C1465.47 343.53 1465.46 304.6 1489.47 280.59C1513.46 256.57 1552.4 256.59 1576.41 280.59C1600.42 304.59 1600.4 343.5 1576.39 367.51H1576.4Z" fill="#FFDC9C"/>
<path opacity="0.58" d="M1572.27 363.37C1550.54 385.1 1515.34 385.13 1493.62 363.4C1471.9 341.68 1471.9 306.45 1493.62 284.73C1515.33 263 1550.56 263.02 1572.28 284.73C1594 306.45 1593.98 341.65 1572.27 363.37Z" fill="#FFE0A4"/>
<path opacity="0.67" d="M1568.13 359.23C1548.69 378.67 1517.19 378.7 1497.76 359.25C1478.33 339.82 1478.33 308.3 1497.77 288.87C1517.19 269.43 1548.71 269.44 1568.14 288.87C1587.57 308.3 1587.55 339.8 1568.13 359.23Z" fill="#FFE5AD"/>
<path opacity="0.75" d="M1563.99 355.1C1546.83 372.25 1519.04 372.27 1501.89 355.12C1484.74 337.98 1484.75 310.16 1501.9 293.02C1519.04 275.87 1546.85 275.88 1563.99 293.02C1581.13 310.16 1581.11 337.95 1563.99 355.1Z" fill="#FFE9B6"/>
<path opacity="0.83" d="M1559.85 350.96C1544.98 365.82 1520.89 365.84 1506.03 350.97C1491.17 336.11 1491.19 312.01 1506.04 297.15C1520.89 282.29 1544.99 282.3 1559.85 297.15C1574.71 312 1574.69 336.09 1559.85 350.96Z" fill="#FFEDBF"/>
<path opacity="0.92" d="M1555.71 346.82C1543.13 359.39 1522.74 359.41 1510.17 346.82C1497.59 334.25 1497.62 313.85 1510.18 301.29C1522.74 288.72 1543.13 288.72 1555.71 301.29C1568.28 313.86 1568.26 334.24 1555.71 346.82Z" fill="#FFF2C8"/>
<path d="M1551.57 342.68C1541.28 352.96 1524.6 352.98 1514.3 342.68C1504.01 332.4 1504.04 315.71 1514.32 305.43C1524.6 295.15 1541.28 295.15 1551.57 305.43C1561.85 315.71 1561.83 332.38 1551.57 342.68Z" fill="#FFF6D1"/>
<path d="M1733.78 955.45C1713.98 955.45 1697.9 939.21 1697.9 919.17C1697.93 899.11 1713.99 882.83 1733.75 882.83C1753.51 882.83 1769.64 899.1 1769.66 919.12C1769.66 939.21 1753.58 955.46 1733.78 955.46V955.45Z" fill="#B00F0F"/>
<path d="M1779.55 978.86C1746.52 978.86 1719.74 952.14 1719.74 919.17C1719.74 886.2 1746.52 859.38 1779.55 859.38C1812.58 859.38 1839.32 886.13 1839.32 919.14C1839.32 952.15 1812.52 978.86 1779.55 978.86Z" fill="url(#paint2_radial_174_2)"/>
<path opacity="0.08" d="M1779.55 1009.84C1729.41 1009.84 1688.77 969.26 1688.77 919.13C1688.79 869.02 1729.4 828.37 1779.55 828.39C1829.68 828.35 1870.3 869.03 1870.29 919.12C1870.29 969.26 1829.68 1009.84 1779.55 1009.84Z" fill="#FFC66F"/>
<path opacity="0.17" d="M1779.55 1003.99C1732.64 1003.99 1694.63 966.03 1694.63 919.13C1694.65 872.26 1732.64 834.22 1779.55 834.24C1826.44 834.2 1864.44 872.26 1864.43 919.12C1864.43 966.03 1826.44 1003.99 1779.55 1003.99Z" fill="#FFCB78"/>
<path opacity="0.25" d="M1779.55 998.14C1735.88 998.14 1700.48 962.8 1700.48 919.13C1700.5 875.49 1735.87 840.08 1779.55 840.1C1823.21 840.07 1858.58 875.49 1858.57 919.13C1858.57 962.8 1823.2 998.14 1779.55 998.15V998.14Z" fill="#FFCF81"/>
<path opacity="0.33" d="M1779.55 992.28C1739.11 992.28 1706.34 959.55 1706.34 919.12C1706.35 878.71 1739.11 845.93 1779.55 845.94C1819.97 845.91 1852.73 878.71 1852.72 919.11C1852.72 959.55 1819.97 992.26 1779.55 992.27V992.28Z" fill="#FFD38A"/>
<path opacity="0.42" d="M1779.55 986.43C1742.35 986.43 1712.2 956.32 1712.2 919.12C1712.2 881.95 1742.35 851.79 1779.55 851.8C1816.74 851.78 1846.87 881.95 1846.86 919.12C1846.86 956.32 1816.72 986.42 1779.55 986.43Z" fill="#FFD893"/>
<path opacity="0.5" d="M1779.55 980.58C1745.58 980.58 1718.05 953.09 1718.05 919.12C1718.05 885.18 1745.58 857.65 1779.55 857.65C1813.5 857.63 1841.01 885.18 1841.01 919.12C1841.01 953.08 1813.49 980.56 1779.55 980.58Z" fill="#FFDC9C"/>
<path opacity="0.58" d="M1779.55 974.72C1748.82 974.72 1723.91 949.85 1723.91 919.12C1723.91 888.42 1748.82 863.51 1779.55 863.51C1810.26 863.5 1835.16 888.42 1835.15 919.12C1835.15 949.85 1810.25 974.71 1779.55 974.72Z" fill="#FFE0A4"/>
<path opacity="0.67" d="M1779.55 968.87C1752.05 968.87 1729.77 946.61 1729.77 919.12C1729.77 891.65 1752.06 869.37 1779.55 869.36C1807.03 869.36 1829.3 891.65 1829.3 919.12C1829.3 946.61 1807.02 968.85 1779.55 968.87Z" fill="#FFE5AD"/>
<path opacity="0.75" d="M1779.55 963.02C1755.29 963.02 1735.62 943.38 1735.62 919.12C1735.62 894.89 1755.29 875.22 1779.55 875.22C1803.79 875.22 1823.45 894.89 1823.44 919.13C1823.44 943.38 1803.78 963.01 1779.55 963.03V963.02Z" fill="#FFE9B6"/>
<path opacity="0.83" d="M1779.55 957.16C1758.53 957.16 1741.48 940.14 1741.48 919.11C1741.47 898.11 1758.53 881.07 1779.55 881.06C1800.56 881.06 1817.59 898.11 1817.59 919.12C1817.59 940.14 1800.55 957.14 1779.55 957.16Z" fill="#FFEDBF"/>
<path opacity="0.92" d="M1779.55 951.31C1761.76 951.31 1747.34 936.9 1747.34 919.11C1747.33 901.35 1761.77 886.93 1779.55 886.92C1797.32 886.93 1811.73 901.35 1811.73 919.12C1811.73 936.9 1797.31 951.29 1779.55 951.31Z" fill="#FFF2C8"/>
<path d="M1779.55 945.46C1765 945.46 1753.19 933.67 1753.19 919.11C1753.17 904.58 1765 892.79 1779.55 892.78C1794.09 892.8 1805.88 904.58 1805.88 919.13C1805.88 933.68 1794.08 945.44 1779.55 945.46Z" fill="#FFF6D1"/>
<path d="M1475.08 1507.5C1461.09 1493.5 1461.19 1470.62 1475.38 1456.41C1489.59 1442.24 1512.45 1442.15 1526.42 1456.09C1540.41 1470.09 1540.27 1492.97 1526.15 1507.18C1511.94 1521.33 1489.06 1521.44 1475.08 1507.5Z" fill="#B00F0F"/>
<path d="M1490.88 1556.4C1467.54 1533.03 1467.5 1495.2 1490.82 1471.9C1514.18 1448.55 1552.03 1448.55 1575.39 1471.9C1598.71 1495.2 1598.74 1533.1 1575.39 1556.45C1552.03 1579.8 1514.21 1579.69 1490.87 1556.41L1490.88 1556.4Z" fill="url(#paint3_radial_174_2)"/>
<path opacity="0.08" d="M1468.98 1578.31C1433.51 1542.84 1433.49 1485.43 1468.92 1449.96C1504.36 1414.58 1561.83 1414.54 1597.29 1450C1632.74 1485.43 1632.71 1542.91 1597.29 1578.31C1561.83 1613.77 1504.42 1613.73 1468.98 1578.31Z" fill="#FFC66F"/>
<path opacity="0.17" d="M1473.12 1574.16C1439.94 1540.98 1439.92 1487.27 1473.07 1454.09C1506.23 1420.99 1559.98 1420.95 1593.15 1454.13C1626.32 1487.27 1626.29 1541.05 1593.15 1574.16C1559.98 1607.33 1506.27 1607.3 1473.12 1574.16Z" fill="#FFCB78"/>
<path opacity="0.25" d="M1477.26 1570.02C1446.37 1539.14 1446.35 1489.13 1477.21 1458.24C1508.08 1427.42 1558.13 1427.39 1589.01 1458.28C1619.89 1489.14 1619.86 1539.2 1589.01 1570.03C1558.13 1600.91 1508.12 1600.88 1477.26 1570.03V1570.02Z" fill="#FFCF81"/>
<path opacity="0.33" d="M1481.4 1565.88C1452.8 1537.29 1452.78 1490.98 1481.35 1462.38C1509.93 1433.84 1556.27 1433.82 1584.87 1462.41C1613.46 1490.98 1613.44 1537.34 1584.87 1565.88C1556.27 1594.48 1509.97 1594.44 1481.4 1565.88Z" fill="#FFD38A"/>
<path opacity="0.42" d="M1485.54 1561.74C1459.23 1535.44 1459.2 1492.84 1485.5 1466.53C1511.79 1440.27 1554.42 1440.26 1580.74 1466.56C1607.04 1492.85 1607.02 1535.49 1580.74 1561.75C1554.43 1588.06 1511.83 1588.02 1485.55 1561.75L1485.54 1561.74Z" fill="#FFD893"/>
<path opacity="0.5" d="M1489.68 1557.6C1465.66 1533.59 1465.63 1494.7 1489.64 1470.67C1513.65 1446.69 1552.57 1446.68 1576.59 1470.69C1600.6 1494.69 1600.58 1533.62 1576.59 1557.6C1552.57 1581.62 1513.67 1581.58 1489.68 1557.6Z" fill="#FFDC9C"/>
<path opacity="0.58" d="M1493.82 1553.45C1472.08 1531.73 1472.06 1496.54 1493.78 1474.81C1515.5 1453.11 1550.71 1453.11 1572.45 1474.83C1594.17 1496.55 1594.16 1531.77 1572.45 1553.46C1550.71 1575.2 1515.52 1575.16 1493.82 1553.46V1553.45Z" fill="#FFE0A4"/>
<path opacity="0.67" d="M1497.96 1549.31C1478.51 1529.88 1478.49 1498.4 1497.93 1478.95C1517.36 1459.53 1548.87 1459.54 1568.32 1478.97C1587.75 1498.4 1587.74 1529.91 1568.32 1549.31C1548.87 1568.76 1517.39 1568.72 1497.97 1549.31H1497.96Z" fill="#FFE5AD"/>
<path opacity="0.75" d="M1502.1 1545.17C1484.94 1528.03 1484.92 1500.25 1502.07 1483.09C1519.22 1465.95 1547.01 1465.97 1564.17 1483.1C1581.31 1500.25 1581.31 1528.05 1564.17 1545.16C1547 1562.33 1519.23 1562.28 1502.1 1545.16V1545.17Z" fill="#FFE9B6"/>
<path opacity="0.83" d="M1506.24 1541.03C1491.37 1526.19 1491.34 1502.11 1506.21 1487.24C1521.07 1472.38 1545.15 1472.4 1560.03 1487.24C1574.89 1502.1 1574.88 1526.19 1560.03 1541.02C1545.15 1555.9 1521.08 1555.85 1506.24 1541.02V1541.03Z" fill="#FFEDBF"/>
<path opacity="0.92" d="M1510.38 1536.88C1497.8 1524.33 1497.77 1503.96 1510.36 1491.37C1522.93 1478.79 1543.31 1478.82 1555.9 1491.37C1568.47 1503.95 1568.46 1524.33 1555.9 1536.87C1543.31 1549.46 1522.94 1549.42 1510.39 1536.87L1510.38 1536.88Z" fill="#FFF2C8"/>
<path d="M1514.52 1532.74C1504.23 1522.48 1504.2 1505.81 1514.5 1495.52C1524.78 1485.22 1541.45 1485.26 1551.76 1495.52C1562.04 1505.81 1562.04 1522.48 1551.76 1532.74C1541.45 1543.05 1524.79 1543 1514.53 1532.74H1514.52Z" fill="#FFF6D1"/>
<path d="M901.81 1714.88C901.81 1695.12 918.06 1678.97 938.14 1678.97C958.19 1679.02 974.44 1695.11 974.46 1714.83C974.44 1734.65 958.17 1750.73 938.16 1750.79C918.06 1750.73 901.81 1734.65 901.81 1714.87V1714.88Z" fill="#B00F0F"/>
<path d="M878.39 1760.63C878.39 1727.6 905.11 1700.83 938.1 1700.83C971.09 1700.83 997.92 1727.6 997.92 1760.63C997.92 1793.66 971.14 1820.41 938.12 1820.41C905.1 1820.41 878.4 1793.65 878.38 1760.63H878.39Z" fill="url(#paint4_radial_174_2)"/>
<path opacity="0.08" d="M847.43 1760.66C847.41 1710.52 888 1669.9 938.13 1669.86C988.24 1669.9 1028.88 1710.52 1028.89 1760.63C1028.89 1810.78 988.24 1851.39 938.14 1851.39C888.04 1851.39 847.44 1810.77 847.43 1760.66Z" fill="#FFC66F"/>
<path opacity="0.17" d="M853.28 1760.66C853.26 1713.75 891.23 1675.75 938.13 1675.71C985 1675.75 1023.03 1713.74 1023.03 1760.62C1023.03 1807.53 985 1845.52 938.14 1845.52C891.28 1845.52 853.29 1807.52 853.28 1760.65V1760.66Z" fill="#FFCB78"/>
<path opacity="0.25" d="M859.14 1760.66C859.12 1716.98 894.47 1681.61 938.14 1681.57C981.78 1681.6 1017.18 1716.98 1017.19 1760.62C1017.19 1804.3 981.78 1839.67 938.15 1839.67C894.52 1839.67 859.15 1804.29 859.15 1760.66H859.14Z" fill="#FFCF81"/>
<path opacity="0.33" d="M864.99 1760.66C864.97 1720.21 897.7 1687.46 938.13 1687.43C978.54 1687.46 1011.31 1720.21 1011.32 1760.62C1011.31 1801.07 978.54 1833.81 938.14 1833.81C897.74 1833.81 865 1801.06 864.99 1760.66Z" fill="#FFD38A"/>
<path opacity="0.42" d="M870.85 1760.66C870.83 1723.44 900.94 1693.31 938.14 1693.29C975.32 1693.32 1005.46 1723.45 1005.48 1760.63C1005.47 1797.84 975.32 1827.96 938.15 1827.96C900.98 1827.96 870.86 1797.83 870.85 1760.67V1760.66Z" fill="#FFD893"/>
<path opacity="0.5" d="M876.7 1760.66C876.68 1726.67 904.17 1699.17 938.14 1699.14C972.08 1699.16 999.6 1726.67 999.62 1760.62C999.6 1794.6 972.08 1822.09 938.14 1822.09C904.2 1822.09 876.7 1794.58 876.7 1760.65V1760.66Z" fill="#FFDC9C"/>
<path opacity="0.58" d="M882.56 1760.66C882.54 1729.91 907.41 1705.02 938.14 1705C968.85 1705.02 993.74 1729.9 993.76 1760.62C993.74 1791.37 968.84 1816.23 938.14 1816.23C907.44 1816.23 882.55 1791.34 882.55 1760.65L882.56 1760.66Z" fill="#FFE0A4"/>
<path opacity="0.67" d="M888.41 1760.66C888.39 1733.14 910.64 1710.87 938.14 1710.86C965.62 1710.87 987.88 1733.14 987.91 1760.62C987.89 1788.13 965.62 1810.38 938.14 1810.38C910.66 1810.38 888.41 1788.12 888.4 1760.66H888.41Z" fill="#FFE5AD"/>
<path opacity="0.75" d="M894.26 1760.66C894.24 1736.37 913.87 1716.73 938.14 1716.72C962.38 1716.73 982.02 1736.37 982.05 1760.63C982.03 1784.91 962.38 1804.53 938.14 1804.53C913.9 1804.53 894.26 1784.89 894.26 1760.67V1760.66Z" fill="#FFE9B6"/>
<path opacity="0.83" d="M900.12 1760.66C900.1 1739.6 917.11 1722.58 938.15 1722.58C959.16 1722.58 976.17 1739.61 976.21 1760.63C976.18 1781.68 959.16 1798.67 938.15 1798.67C917.14 1798.67 900.12 1781.65 900.12 1760.67V1760.66Z" fill="#FFEDBF"/>
<path opacity="0.92" d="M905.97 1760.66C905.96 1742.83 920.35 1728.44 938.14 1728.43C955.92 1728.43 970.3 1742.83 970.34 1760.62C970.31 1778.43 955.92 1792.8 938.14 1792.8C920.36 1792.8 905.97 1778.4 905.97 1760.65V1760.66Z" fill="#FFF2C8"/>
<path d="M911.83 1760.66C911.82 1746.07 923.59 1734.29 938.15 1734.29C952.71 1734.29 964.45 1746.06 964.5 1760.62C964.47 1775.2 952.7 1786.94 938.15 1786.94C923.6 1786.94 911.83 1775.17 911.83 1760.65V1760.66Z" fill="#FFF6D1"/>
<path d="M901.81 140.88C901.81 121.12 918.06 104.97 938.14 104.97C958.19 105.02 974.44 121.11 974.46 140.83C974.44 160.65 958.17 176.73 938.16 176.79C918.06 176.73 901.81 160.65 901.81 140.87V140.88Z" fill="#B00F0F"/>
<path d="M878.39 96.6301C878.39 63.6001 905.11 36.8301 938.1 36.8301C971.09 36.8301 997.92 63.6001 997.92 96.6301C997.92 129.66 971.14 156.41 938.12 156.41C905.1 156.41 878.4 129.65 878.38 96.6301H878.39Z" fill="url(#paint5_radial_174_2)"/>
<path opacity="0.08" d="M847.43 96.6599C847.41 46.5199 888 5.89986 938.13 5.85986C988.24 5.89986 1028.88 46.5199 1028.89 96.6299C1028.89 146.78 988.24 187.39 938.14 187.39C888.04 187.39 847.44 146.77 847.43 96.6599Z" fill="#FFC66F"/>
<path opacity="0.17" d="M853.28 96.66C853.26 49.75 891.23 11.75 938.13 11.71C985 11.75 1023.03 49.74 1023.03 96.62C1023.03 143.53 985 181.52 938.14 181.52C891.28 181.52 853.29 143.52 853.28 96.65V96.66Z" fill="#FFCB78"/>
<path opacity="0.25" d="M859.14 96.6598C859.12 52.9798 894.47 17.6098 938.14 17.5698C981.78 17.5998 1017.18 52.9798 1017.19 96.6198C1017.19 140.3 981.78 175.67 938.15 175.67C894.52 175.67 859.15 140.29 859.15 96.6598H859.14Z" fill="#FFCF81"/>
<path opacity="0.33" d="M864.99 96.6602C864.97 56.2102 897.7 23.4602 938.13 23.4302C978.54 23.4602 1011.31 56.2102 1011.32 96.6202C1011.31 137.07 978.54 169.81 938.14 169.81C897.74 169.81 865 137.06 864.99 96.6602Z" fill="#FFD38A"/>
<path opacity="0.42" d="M870.85 96.66C870.83 59.44 900.94 29.31 938.14 29.29C975.32 29.32 1005.46 59.45 1005.48 96.63C1005.47 133.84 975.32 163.96 938.15 163.96C900.98 163.96 870.86 133.83 870.85 96.67V96.66Z" fill="#FFD893"/>
<path opacity="0.5" d="M876.7 96.6601C876.68 62.6701 904.17 35.1701 938.14 35.1401C972.08 35.1601 999.6 62.6701 999.62 96.6201C999.6 130.6 972.08 158.09 938.14 158.09C904.2 158.09 876.7 130.58 876.7 96.6501V96.6601Z" fill="#FFDC9C"/>
<path opacity="0.58" d="M882.56 96.66C882.54 65.91 907.41 41.02 938.14 41C968.85 41.02 993.74 65.9 993.76 96.62C993.74 127.37 968.84 152.23 938.14 152.23C907.44 152.23 882.55 127.34 882.55 96.65L882.56 96.66Z" fill="#FFE0A4"/>
<path opacity="0.67" d="M888.41 96.6599C888.39 69.1399 910.64 46.8699 938.14 46.8599C965.62 46.8699 987.88 69.1399 987.91 96.6199C987.89 124.13 965.62 146.38 938.14 146.38C910.66 146.38 888.41 124.12 888.4 96.6599H888.41Z" fill="#FFE5AD"/>
<path opacity="0.75" d="M894.26 96.6602C894.24 72.3702 913.87 52.7302 938.14 52.7202C962.38 52.7302 982.02 72.3702 982.05 96.6302C982.03 120.91 962.38 140.53 938.14 140.53C913.9 140.53 894.26 120.89 894.26 96.6702V96.6602Z" fill="#FFE9B6"/>
<path opacity="0.83" d="M900.12 96.6601C900.1 75.6001 917.11 58.5801 938.15 58.5801C959.16 58.5801 976.17 75.6101 976.21 96.6301C976.18 117.68 959.16 134.67 938.15 134.67C917.14 134.67 900.12 117.65 900.12 96.6701V96.6601Z" fill="#FFEDBF"/>
<path opacity="0.92" d="M905.97 96.6602C905.96 78.8302 920.35 64.4402 938.14 64.4302C955.92 64.4302 970.3 78.8302 970.34 96.6202C970.31 114.43 955.92 128.8 938.14 128.8C920.36 128.8 905.97 114.4 905.97 96.6502V96.6602Z" fill="#FFF2C8"/>
<path d="M911.83 96.66C911.82 82.07 923.59 70.29 938.15 70.29C952.71 70.29 964.45 82.06 964.5 96.62C964.47 111.2 952.7 122.94 938.15 122.94C923.6 122.94 911.83 111.17 911.83 96.65V96.66Z" fill="#FFF6D1"/>
<path d="M349.78 1456.2C363.78 1442.2 386.67 1442.31 400.85 1456.48C415 1470.74 415.13 1493.55 401.19 1507.55C387.17 1521.57 364.29 1521.4 350.1 1507.29C335.93 1493.02 335.8 1470.2 349.78 1456.2Z" fill="#B00F0F"/>
<path d="M300.87 1471.96C324.23 1448.61 362.05 1448.61 385.39 1471.9C408.76 1495.31 408.76 1533.15 385.4 1556.49C362.05 1579.86 324.18 1579.86 300.84 1556.49C277.5 1533.15 277.56 1495.31 300.87 1471.96Z" fill="url(#paint6_radial_174_2)"/>
<path opacity="0.08" d="M278.98 1450.1C314.42 1414.62 371.85 1414.62 407.32 1450.01C442.72 1485.48 442.76 1542.96 407.32 1578.39C371.86 1613.86 314.38 1613.82 278.98 1578.39C243.51 1542.96 243.55 1485.55 278.99 1450.1H278.98Z" fill="#FFC66F"/>
<path opacity="0.17" d="M283.12 1454.24C316.28 1421.05 369.99 1421.05 403.17 1454.15C436.29 1487.33 436.32 1541.1 403.17 1574.24C370 1607.42 316.23 1607.39 283.11 1574.24C249.93 1541.1 249.97 1487.39 283.12 1454.23V1454.24Z" fill="#FFCB78"/>
<path opacity="0.25" d="M287.26 1458.38C318.13 1427.47 368.14 1427.47 399.03 1458.3C429.87 1489.19 429.89 1539.25 399.03 1570.11C368.15 1601.01 318.09 1600.97 287.25 1570.11C256.36 1539.25 256.4 1489.25 287.26 1458.38Z" fill="#FFCF81"/>
<path opacity="0.33" d="M291.4 1462.52C319.98 1433.9 366.29 1433.9 394.89 1462.44C423.44 1491.04 423.47 1537.39 394.89 1565.96C366.29 1594.57 319.95 1594.54 291.39 1565.96C262.79 1537.38 262.83 1491.09 291.4 1462.52Z" fill="#FFD38A"/>
<path opacity="0.42" d="M295.54 1466.66C321.84 1440.32 364.43 1440.32 390.75 1466.59C417.02 1492.9 417.04 1535.53 390.75 1561.83C364.44 1588.15 321.81 1588.12 295.53 1561.83C269.22 1535.54 269.26 1492.96 295.53 1466.67L295.54 1466.66Z" fill="#FFD893"/>
<path opacity="0.5" d="M299.68 1470.8C323.69 1446.75 362.58 1446.75 386.61 1470.73C410.6 1494.76 410.61 1533.67 386.61 1557.68C362.59 1581.71 323.67 1581.69 299.68 1557.68C275.66 1533.67 275.69 1494.8 299.68 1470.8Z" fill="#FFDC9C"/>
<path opacity="0.58" d="M303.82 1474.94C325.54 1453.17 360.73 1453.17 382.47 1474.87C404.18 1496.61 404.18 1531.81 382.47 1553.53C360.73 1575.28 325.53 1575.26 303.82 1553.53C282.08 1531.81 282.12 1496.64 303.82 1474.93V1474.94Z" fill="#FFE0A4"/>
<path opacity="0.67" d="M307.96 1479.09C327.4 1459.61 358.87 1459.61 378.33 1479.03C397.76 1498.48 397.75 1529.97 378.33 1549.41C358.88 1568.87 327.39 1568.85 307.96 1549.41C288.51 1529.97 288.55 1498.51 307.96 1479.1V1479.09Z" fill="#FFE5AD"/>
<path opacity="0.75" d="M312.1 1483.23C329.25 1466.03 357.02 1466.03 374.19 1483.17C391.33 1500.33 391.33 1528.1 374.19 1545.26C357.03 1562.43 329.25 1562.42 312.1 1545.26C294.94 1528.1 294.98 1500.35 312.1 1483.23Z" fill="#FFE9B6"/>
<path opacity="0.83" d="M316.24 1487.37C331.11 1472.46 355.17 1472.46 370.04 1487.31C384.9 1502.18 384.89 1526.24 370.04 1541.12C355.16 1556 331.09 1556 316.23 1541.12C301.36 1526.25 301.39 1502.2 316.23 1487.37H316.24Z" fill="#FFEDBF"/>
<path opacity="0.92" d="M320.38 1491.51C332.96 1478.88 353.32 1478.88 365.9 1491.46C378.48 1504.04 378.46 1524.39 365.9 1536.98C353.31 1549.58 332.95 1549.57 320.38 1536.98C307.8 1524.39 307.83 1504.05 320.38 1491.51Z" fill="#FFF2C8"/>
<path d="M324.52 1495.65C334.81 1485.31 351.46 1485.31 361.76 1495.6C372.06 1505.9 372.03 1522.53 361.76 1532.83C351.46 1543.14 334.81 1543.14 324.52 1532.83C314.23 1522.53 314.26 1505.89 324.52 1495.64V1495.65Z" fill="#FFF6D1"/>
<path d="M142.36 882.94C162.16 882.94 178.26 899.19 178.28 919.22C178.21 939.32 162.15 955.56 142.42 955.59C122.59 955.56 106.52 939.32 106.48 919.28C106.52 899.2 122.59 882.94 142.36 882.94Z" fill="#B00F0F"/>
<path d="M96.6301 859.51C129.67 859.49 156.43 886.23 156.43 919.22C156.43 952.21 129.65 979.05 96.6301 979.05C63.6101 979.05 36.8301 952.28 36.8301 919.24C36.8301 886.2 63.6301 859.52 96.6301 859.5V859.51Z" fill="url(#paint7_radial_174_2)"/>
<path opacity="0.08" d="M96.5896 828.54C146.73 828.52 187.34 869.1 187.39 919.23C187.33 969.35 146.73 1010.01 96.5996 1010.01C46.4496 1010.01 5.82962 969.35 5.84962 919.25C5.82962 869.1 46.4596 828.54 96.5796 828.54H96.5896Z" fill="#FFC66F"/>
<path opacity="0.17" d="M96.59 834.4C143.49 834.38 181.48 872.34 181.53 919.24C181.48 966.13 143.49 1004.16 96.6 1004.16C49.69 1004.16 11.68 966.13 11.71 919.26C11.69 872.35 49.7 834.4 96.59 834.4Z" fill="#FFCB78"/>
<path opacity="0.25" d="M96.5903 840.25C140.26 840.23 175.63 875.57 175.68 919.23C175.63 962.88 140.27 998.29 96.6103 998.29C52.9303 998.29 17.5503 962.88 17.5703 919.25C17.5503 875.57 52.9403 840.25 96.5903 840.25Z" fill="#FFCF81"/>
<path opacity="0.33" d="M96.5897 846.11C137.03 846.09 169.77 878.81 169.82 919.24C169.78 959.66 137.03 992.44 96.6097 992.44C56.1697 992.44 23.4097 959.66 23.4297 919.25C23.4097 878.8 56.1797 846.1 96.5897 846.1V846.11Z" fill="#FFD38A"/>
<path opacity="0.42" d="M96.59 851.96C133.79 851.94 163.92 882.04 163.96 919.24C163.93 956.43 133.8 986.58 96.61 986.58C59.4 986.58 29.27 956.42 29.29 919.25C29.28 882.04 59.42 851.96 96.6 851.96H96.59Z" fill="#FFD893"/>
<path opacity="0.5" d="M96.5897 857.82C130.56 857.8 158.07 885.28 158.1 919.25C158.07 953.2 130.56 980.73 96.6097 980.73C62.6397 980.73 35.1197 953.2 35.1397 919.26C35.1297 885.28 62.6497 857.82 96.5897 857.82Z" fill="#FFDC9C"/>
<path opacity="0.58" d="M96.59 863.67C127.33 863.65 152.21 888.51 152.24 919.24C152.22 949.96 127.33 974.86 96.61 974.86C65.87 974.86 40.98 949.96 41 919.25C41 888.51 65.89 863.67 96.59 863.67Z" fill="#FFE0A4"/>
<path opacity="0.67" d="M96.5904 869.53C124.09 869.51 146.36 891.75 146.38 919.25C146.36 946.74 124.09 969.01 96.6104 969.02C69.1004 969.02 46.8404 946.74 46.8604 919.26C46.8604 891.75 69.1304 869.53 96.6004 869.53H96.5904Z" fill="#FFE5AD"/>
<path opacity="0.75" d="M96.59 875.38C120.86 875.36 140.5 894.98 140.52 919.25C140.51 943.5 120.86 963.15 96.61 963.16C72.34 963.16 52.7 943.51 52.71 919.26C52.71 894.99 72.36 875.39 96.59 875.39V875.38Z" fill="#FFE9B6"/>
<path opacity="0.83" d="M96.5903 881.23C117.63 881.21 134.65 898.21 134.66 919.24C134.66 940.26 117.62 957.28 96.6103 957.29C75.5703 957.29 58.5503 940.26 58.5703 919.25C58.5703 898.21 75.6103 881.23 96.5903 881.23Z" fill="#FFEDBF"/>
<path opacity="0.92" d="M96.5897 887.09C114.4 887.07 128.79 901.45 128.8 919.25C128.8 937.04 114.39 951.43 96.6097 951.44C78.8097 951.44 64.4097 937.04 64.4297 919.25C64.4297 901.45 78.8497 887.09 96.5997 887.09H96.5897Z" fill="#FFF2C8"/>
<path d="M96.5903 892.94C111.16 892.92 122.94 904.68 122.94 919.25C122.94 933.8 111.15 945.57 96.6103 945.58C82.0403 945.58 70.2703 933.8 70.2803 919.25C70.2803 904.68 82.0803 892.94 96.5903 892.94Z" fill="#FFF6D1"/>
<path d="M401.06 330.91C415.06 344.91 414.95 367.78 400.82 381.97C386.56 396.13 363.7 396.26 349.73 382.32C335.73 368.29 335.85 345.42 349.99 331.23C364.22 317.04 387.08 316.93 401.06 330.91Z" fill="#B00F0F"/>
<path d="M385.3 281.99C408.67 305.34 408.67 343.17 385.34 366.5C361.97 389.89 324.11 389.89 300.75 366.53C277.4 343.17 277.4 305.32 300.75 281.97C324.11 258.61 361.92 258.69 385.3 281.99Z" fill="url(#paint8_radial_174_2)"/>
<path opacity="0.08" d="M407.17 260.11C442.64 295.54 442.67 352.97 407.26 388.44C371.79 423.85 314.32 423.89 278.87 388.44C243.42 352.97 243.44 295.5 278.87 260.1C314.33 224.63 371.73 224.67 407.17 260.11Z" fill="#FFC66F"/>
<path opacity="0.17" d="M403.03 264.25C436.21 297.39 436.24 351.12 403.11 384.3C369.93 417.43 316.17 417.46 283.01 384.3C249.84 351.12 249.87 297.36 283.01 264.24C316.18 231.06 369.88 231.1 403.03 264.25Z" fill="#FFCB78"/>
<path opacity="0.25" d="M398.89 268.39C429.79 299.24 429.81 349.26 398.97 380.15C368.08 411 318.03 411.02 287.15 380.15C256.27 349.26 256.29 299.2 287.15 268.37C318.04 237.48 368.03 237.52 398.89 268.38V268.39Z" fill="#FFCF81"/>
<path opacity="0.33" d="M394.75 272.53C423.36 301.1 423.38 347.41 394.82 376.01C366.22 404.57 319.88 404.59 291.29 376.01C262.7 347.41 262.72 301.06 291.29 272.52C319.89 243.92 366.18 243.96 394.75 272.53Z" fill="#FFD38A"/>
<path opacity="0.42" d="M390.61 276.67C416.93 302.95 416.95 345.56 390.67 371.87C364.36 398.15 321.73 398.17 295.43 371.87C269.12 345.55 269.14 302.92 295.43 276.66C321.74 250.34 364.33 250.39 390.61 276.66V276.67Z" fill="#FFD893"/>
<path opacity="0.5" d="M386.47 280.81C410.51 304.81 410.52 343.7 386.53 367.73C362.51 391.73 323.6 391.74 299.58 367.73C275.56 343.7 275.58 304.78 299.58 280.8C323.6 256.77 362.48 256.81 386.48 280.8L386.47 280.81Z" fill="#FFDC9C"/>
<path opacity="0.58" d="M382.33 284.95C404.08 306.66 404.09 341.85 382.38 363.59C360.66 385.3 325.45 385.31 303.71 363.59C281.97 341.85 281.99 306.63 303.71 284.94C325.45 263.2 360.62 263.24 382.32 284.94L382.33 284.95Z" fill="#FFE0A4"/>
<path opacity="0.67" d="M378.19 289.09C397.66 308.51 397.67 340 378.23 359.45C358.8 378.88 327.3 378.88 307.85 359.45C288.4 340 288.42 308.49 307.85 289.09C327.3 269.64 358.77 269.68 378.18 289.09H378.19Z" fill="#FFE5AD"/>
<path opacity="0.75" d="M374.05 293.23C391.23 310.37 391.24 338.14 374.09 355.31C356.95 372.46 329.16 372.45 312 355.31C294.84 338.15 294.85 310.35 312 293.23C329.16 276.07 356.93 276.11 374.05 293.23Z" fill="#FFE9B6"/>
<path opacity="0.83" d="M369.91 297.37C384.8 312.22 384.81 336.29 369.94 351.17C355.09 366.03 331.01 366.03 316.14 351.17C301.26 336.29 301.28 312.2 316.14 297.37C331.01 282.49 355.07 282.54 369.91 297.37Z" fill="#FFEDBF"/>
<path opacity="0.92" d="M365.77 301.51C378.38 314.08 378.38 334.43 365.8 347.02C353.24 359.6 332.87 359.59 320.29 347.02C307.7 334.43 307.71 314.05 320.29 301.5C332.88 288.91 353.23 288.95 365.78 301.5L365.77 301.51Z" fill="#FFF2C8"/>
<path d="M361.63 305.65C371.95 315.93 371.95 332.58 361.65 342.88C351.38 353.18 334.72 353.16 324.42 342.88C314.12 332.58 314.13 315.91 324.42 305.65C334.72 295.35 351.37 295.39 361.63 305.65Z" fill="#FFF6D1"/>
<path d="M238.42 620.2C242.88 624.66 242.84 631.96 238.34 636.47C233.79 640.98 226.52 641.03 222.07 636.58C217.61 632.12 217.65 624.82 222.15 620.31C226.7 615.8 233.97 615.75 238.42 620.2Z" fill="#B00F0F"/>
<path d="M233.4 604.62C240.85 612.07 240.85 624.12 233.42 631.55C225.99 639.01 213.92 639.01 206.48 631.56C199.03 624.12 199.03 612.06 206.48 604.61C213.92 597.17 225.97 597.2 233.41 604.62H233.4Z" fill="url(#paint9_radial_174_2)"/>
<path opacity="0.08" d="M247.15 590.86C262.23 605.91 262.24 630.3 247.19 645.38C232.12 660.43 207.71 660.44 192.64 645.38C177.57 630.31 177.59 605.9 192.64 590.85C207.71 575.79 232.09 575.81 247.14 590.86H247.15Z" fill="#FFC66F"/>
<path opacity="0.17" d="M245.39 592.62C259.5 606.69 259.51 629.52 245.43 643.62C231.33 657.7 208.5 657.71 194.4 643.62C180.31 629.52 180.32 606.69 194.4 592.61C208.49 578.52 231.31 578.54 245.39 592.62Z" fill="#FFCB78"/>
<path opacity="0.25" d="M243.63 594.38C256.77 607.48 256.78 628.73 243.67 641.86C230.54 654.97 209.29 654.97 196.17 641.86C183.05 628.73 183.06 607.47 196.17 594.37C209.29 581.26 230.53 581.27 243.64 594.37L243.63 594.38Z" fill="#FFCF81"/>
<path opacity="0.33" d="M241.87 596.13C254.04 608.26 254.05 627.93 241.9 640.09C229.75 652.23 210.07 652.23 197.92 640.09C185.77 627.93 185.78 608.25 197.92 596.12C210.07 583.98 229.73 583.99 241.87 596.12V596.13Z" fill="#FFD38A"/>
<path opacity="0.42" d="M240.11 597.89C251.31 609.05 251.31 627.15 240.14 638.34C228.96 649.51 210.86 649.51 199.68 638.34C188.5 627.15 188.51 609.05 199.68 597.89C210.86 586.72 228.95 586.73 240.11 597.89Z" fill="#FFD893"/>
<path opacity="0.5" d="M238.35 599.65C248.57 609.84 248.58 626.36 238.38 636.58C228.18 646.77 211.65 646.77 201.44 636.58C191.23 626.36 191.24 609.83 201.44 599.64C211.65 589.44 228.16 589.45 238.35 599.64V599.65Z" fill="#FFDC9C"/>
<path opacity="0.58" d="M236.6 601.41C245.85 610.62 245.86 625.58 236.62 634.82C227.39 644.04 212.44 644.04 203.2 634.82C193.97 625.58 193.97 610.62 203.2 601.4C212.43 592.17 227.38 592.18 236.59 601.4L236.6 601.41Z" fill="#FFE0A4"/>
<path opacity="0.67" d="M234.84 603.17C243.12 611.41 243.13 624.79 234.86 633.06C226.6 641.31 213.23 641.31 204.96 633.06C196.7 624.79 196.7 611.4 204.96 603.16C213.22 594.9 226.59 594.91 234.84 603.16V603.17Z" fill="#FFE5AD"/>
<path opacity="0.75" d="M233.08 604.93C240.39 612.2 240.39 624.01 233.1 631.31C225.82 638.59 214.02 638.58 206.73 631.31C199.44 624.01 199.44 612.2 206.73 604.93C214.02 597.64 225.81 597.65 233.09 604.93H233.08Z" fill="#FFE9B6"/>
<path opacity="0.83" d="M231.32 606.69C237.66 612.99 237.66 623.22 231.33 629.55C225.02 635.86 214.8 635.85 208.48 629.55C202.16 623.22 202.16 612.99 208.48 606.69C214.8 600.37 225.02 600.38 231.32 606.69Z" fill="#FFEDBF"/>
<path opacity="0.92" d="M229.56 608.45C234.92 613.79 234.93 622.43 229.57 627.79C224.23 633.13 215.59 633.12 210.24 627.79C204.89 622.43 204.89 613.77 210.24 608.45C215.59 603.1 224.22 603.13 229.56 608.45Z" fill="#FFF2C8"/>
<path d="M227.8 610.21C232.2 614.56 232.2 621.65 227.8 626.04C223.44 630.41 216.37 630.4 211.99 626.04C207.62 621.65 207.62 614.57 211.99 610.21C216.37 605.83 223.44 605.84 227.79 610.21H227.8Z" fill="#FFF6D1"/>
<path d="M1637.72 620.2C1633.28 624.66 1633.28 631.96 1637.83 636.47C1642.37 640.98 1649.64 641.03 1654.08 636.58C1658.57 632.12 1658.52 624.82 1654.02 620.31C1649.49 615.8 1642.16 615.75 1637.72 620.2Z" fill="#B00F0F"/>
<path d="M1642.75 604.62C1635.32 612.07 1635.32 624.12 1642.75 631.55C1650.19 639.01 1662.25 639.01 1669.68 631.56C1677.11 624.12 1677.11 612.06 1669.68 604.61C1662.25 597.17 1650.19 597.2 1642.75 604.62Z" fill="url(#paint10_radial_174_2)"/>
<path opacity="0.08" d="M1629.01 590.86C1613.96 605.91 1613.91 630.3 1628.97 645.38C1644.02 660.43 1668.47 660.44 1683.53 645.38C1698.6 630.31 1698.6 605.9 1683.53 590.85C1668.48 575.79 1644.08 575.81 1629.01 590.86Z" fill="#FFC66F"/>
<path opacity="0.17" d="M1630.77 592.62C1616.69 606.69 1616.64 629.52 1630.73 643.62C1644.8 657.7 1667.68 657.71 1681.77 643.62C1695.86 629.52 1695.86 606.69 1681.77 592.61C1667.69 578.52 1644.86 578.54 1630.77 592.62Z" fill="#FFCB78"/>
<path opacity="0.25" d="M1632.53 594.38C1619.42 607.48 1619.37 628.73 1632.49 641.86C1645.59 654.97 1666.89 654.97 1680 641.86C1693.11 628.73 1693.11 607.47 1680 594.37C1666.89 581.26 1645.63 581.27 1632.52 594.37L1632.53 594.38Z" fill="#FFCF81"/>
<path opacity="0.33" d="M1634.29 596.13C1622.15 608.26 1622.11 627.93 1634.26 640.09C1646.38 652.23 1666.11 652.23 1678.25 640.09C1690.39 627.93 1690.39 608.25 1678.25 596.12C1666.11 583.98 1646.43 583.99 1634.29 596.12V596.13Z" fill="#FFD38A"/>
<path opacity="0.42" d="M1636.05 597.89C1624.88 609.05 1624.84 627.15 1636.02 638.34C1647.17 649.51 1665.31 649.51 1676.49 638.34C1687.65 627.15 1687.65 609.05 1676.49 597.89C1665.32 586.72 1647.21 586.73 1636.05 597.89Z" fill="#FFD893"/>
<path opacity="0.5" d="M1637.8 599.65C1627.6 609.84 1627.57 626.36 1637.78 636.58C1647.96 646.77 1664.52 646.77 1674.72 636.58C1684.91 626.36 1684.91 609.83 1674.72 599.64C1664.52 589.44 1647.99 589.45 1637.8 599.64V599.65Z" fill="#FFDC9C"/>
<path opacity="0.58" d="M1639.56 601.41C1630.33 610.62 1630.3 625.58 1639.54 634.82C1648.74 644.04 1663.73 644.04 1672.96 634.82C1682.17 625.58 1682.17 610.62 1672.96 601.4C1663.73 592.17 1648.77 592.18 1639.56 601.4V601.41Z" fill="#FFE0A4"/>
<path opacity="0.67" d="M1641.32 603.17C1633.06 611.41 1633.04 624.79 1641.3 633.06C1649.53 641.31 1662.94 641.31 1671.2 633.06C1679.43 624.79 1679.43 611.4 1671.2 603.16C1662.94 594.9 1649.55 594.91 1641.32 603.16V603.17Z" fill="#FFE5AD"/>
<path opacity="0.75" d="M1643.08 604.93C1635.79 612.2 1635.77 624.01 1643.07 631.31C1650.33 638.59 1662.16 638.58 1669.44 631.31C1676.7 624.01 1676.7 612.2 1669.44 604.93C1662.15 597.64 1650.34 597.65 1643.08 604.93Z" fill="#FFE9B6"/>
<path opacity="0.83" d="M1644.84 606.691C1638.53 613.001 1638.51 623.22 1644.84 629.55C1651.12 635.86 1661.39 635.87 1667.69 629.55C1673.99 623.24 1673.97 612.991 1667.69 606.691C1661.37 600.371 1651.14 600.391 1644.85 606.691H1644.84Z" fill="#FFEDBF"/>
<path opacity="0.92" d="M1646.6 608.45C1641.26 613.79 1641.24 622.43 1646.6 627.79C1651.91 633.13 1660.6 633.14 1665.93 627.79C1671.26 622.45 1671.24 613.77 1665.93 608.45C1660.58 603.1 1651.93 603.13 1646.61 608.45H1646.6Z" fill="#FFF2C8"/>
<path d="M1648.36 610.21C1643.97 614.56 1643.97 621.65 1648.36 626.04C1652.69 630.41 1659.79 630.4 1664.17 626.04C1668.5 621.65 1668.5 614.57 1664.17 610.21C1659.79 605.83 1652.7 605.84 1648.36 610.21Z" fill="#FFF6D1"/>
<path d="M238.42 1242.51C242.88 1238.01 242.84 1230.75 238.34 1226.2C233.79 1221.71 226.52 1221.66 222.07 1226.09C217.61 1230.58 217.65 1237.86 222.15 1242.38C226.7 1246.88 233.97 1246.93 238.42 1242.5V1242.51Z" fill="#B00F0F"/>
<path d="M233.4 1258.06C240.85 1250.63 240.85 1238.6 233.42 1231.17C225.99 1223.69 213.92 1223.69 206.48 1231.13C199.03 1238.61 199.03 1250.63 206.48 1258.11C213.92 1265.54 225.97 1265.49 233.41 1258.07L233.4 1258.06Z" fill="url(#paint11_radial_174_2)"/>
<path opacity="0.08" d="M247.15 1271.85C262.23 1256.78 262.24 1232.38 247.19 1217.33C232.12 1202.26 207.71 1202.26 192.64 1217.33C177.57 1232.38 177.59 1256.78 192.64 1271.85C207.71 1286.9 232.09 1286.9 247.14 1271.85H247.15Z" fill="#FFC66F"/>
<path opacity="0.17" d="M245.39 1270.09C259.5 1256 259.51 1233.17 245.43 1219.09C231.33 1204.99 208.5 1204.99 194.4 1219.09C180.31 1233.17 180.32 1255.99 194.4 1270.09C208.49 1284.17 231.31 1284.17 245.39 1270.09Z" fill="#FFCB78"/>
<path opacity="0.25" d="M243.63 1268.33C256.77 1255.21 256.78 1233.96 243.67 1220.85C230.54 1207.72 209.29 1207.72 196.17 1220.85C183.05 1233.96 183.06 1255.2 196.17 1268.33C209.29 1281.44 230.53 1281.44 243.64 1268.33H243.63Z" fill="#FFCF81"/>
<path opacity="0.33" d="M241.87 1266.57C254.04 1254.42 254.05 1234.75 241.9 1222.61C229.75 1210.45 210.07 1210.45 197.92 1222.61C185.77 1234.75 185.78 1254.42 197.92 1266.57C210.07 1278.71 229.73 1278.71 241.87 1266.57Z" fill="#FFD38A"/>
<path opacity="0.42" d="M240.11 1264.81C251.31 1253.63 251.31 1235.54 240.14 1224.37C228.96 1213.18 210.86 1213.18 199.68 1224.37C188.5 1235.54 188.51 1253.63 199.68 1264.81C210.86 1275.98 228.95 1275.98 240.11 1264.81Z" fill="#FFD893"/>
<path opacity="0.5" d="M238.35 1263.05C248.57 1252.84 248.58 1236.33 238.38 1226.13C228.18 1215.91 211.65 1215.91 201.44 1226.13C191.23 1236.33 191.24 1252.84 201.44 1263.05C211.65 1273.25 228.16 1273.25 238.35 1263.05Z" fill="#FFDC9C"/>
<path opacity="0.58" d="M236.6 1261.29C245.85 1252.05 245.86 1237.12 236.62 1227.89C227.39 1218.65 212.44 1218.65 203.2 1227.89C193.97 1237.12 193.97 1252.05 203.2 1261.29C212.43 1270.52 227.38 1270.52 236.59 1261.29H236.6Z" fill="#FFE0A4"/>
<path opacity="0.67" d="M234.84 1259.53C243.12 1251.27 243.13 1237.9 234.86 1229.65C226.6 1221.38 213.23 1221.38 204.96 1229.65C196.7 1237.91 196.7 1251.27 204.96 1259.53C213.22 1267.79 226.59 1267.79 234.84 1259.53Z" fill="#FFE5AD"/>
<path opacity="0.75" d="M233.08 1257.77C240.39 1250.48 240.39 1238.69 233.1 1231.41C225.82 1224.11 214.02 1224.11 206.73 1231.41C199.44 1238.7 199.44 1250.48 206.73 1257.77C214.02 1265.06 225.81 1265.06 233.09 1257.77H233.08Z" fill="#FFE9B6"/>
<path opacity="0.83" d="M231.32 1256.01C237.66 1249.69 237.66 1239.48 231.33 1233.17C225.02 1226.84 214.8 1226.84 208.48 1233.17C202.16 1239.49 202.16 1249.69 208.48 1256.01C214.8 1262.33 225.02 1262.33 231.32 1256.01Z" fill="#FFEDBF"/>
<path opacity="0.92" d="M229.56 1254.25C234.93 1248.9 234.93 1240.27 229.57 1234.93C224.23 1229.57 215.59 1229.57 210.24 1234.93C204.89 1240.28 204.89 1248.91 210.24 1254.25C215.59 1259.6 224.23 1259.6 229.56 1254.25Z" fill="#FFF2C8"/>
<path d="M227.8 1252.49C232.2 1248.11 232.2 1241.06 227.8 1236.68C223.44 1232.29 216.37 1232.29 211.99 1236.68C207.62 1241.06 207.62 1248.11 211.99 1252.49C216.37 1256.87 223.44 1256.87 227.79 1252.49H227.8Z" fill="#FFF6D1"/>
<path d="M1637.72 1242.51C1633.28 1238.01 1633.28 1230.75 1637.83 1226.2C1642.37 1221.71 1649.64 1221.66 1654.08 1226.09C1658.57 1230.58 1658.52 1237.86 1654.02 1242.38C1649.49 1246.88 1642.16 1246.93 1637.72 1242.5V1242.51Z" fill="#B00F0F"/>
<path d="M1642.75 1258.06C1635.32 1250.63 1635.32 1238.6 1642.75 1231.17C1650.19 1223.69 1662.25 1223.69 1669.68 1231.13C1677.11 1238.61 1677.11 1250.63 1669.68 1258.11C1662.25 1265.54 1650.19 1265.49 1642.75 1258.07V1258.06Z" fill="url(#paint12_radial_174_2)"/>
<path opacity="0.08" d="M1629.01 1271.85C1613.96 1256.78 1613.91 1232.38 1628.97 1217.33C1644.02 1202.26 1668.47 1202.26 1683.53 1217.33C1698.6 1232.38 1698.6 1256.78 1683.53 1271.85C1668.48 1286.9 1644.08 1286.9 1629.01 1271.85Z" fill="#FFC66F"/>
<path opacity="0.17" d="M1630.77 1270.09C1616.69 1256 1616.64 1233.17 1630.73 1219.09C1644.8 1204.99 1667.68 1204.99 1681.77 1219.09C1695.86 1233.17 1695.86 1255.99 1681.77 1270.09C1667.69 1284.17 1644.86 1284.17 1630.77 1270.09Z" fill="#FFCB78"/>
<path opacity="0.25" d="M1632.53 1268.33C1619.42 1255.21 1619.37 1233.96 1632.49 1220.85C1645.59 1207.72 1666.89 1207.72 1680 1220.85C1693.11 1233.96 1693.11 1255.2 1680 1268.33C1666.89 1281.44 1645.63 1281.44 1632.52 1268.33H1632.53Z" fill="#FFCF81"/>
<path opacity="0.33" d="M1634.29 1266.57C1622.15 1254.42 1622.11 1234.75 1634.26 1222.61C1646.38 1210.45 1666.11 1210.45 1678.25 1222.61C1690.39 1234.75 1690.39 1254.42 1678.25 1266.57C1666.11 1278.71 1646.43 1278.71 1634.29 1266.57Z" fill="#FFD38A"/>
<path opacity="0.42" d="M1636.05 1264.81C1624.88 1253.63 1624.84 1235.54 1636.02 1224.37C1647.17 1213.18 1665.31 1213.18 1676.49 1224.37C1687.65 1235.54 1687.65 1253.63 1676.49 1264.81C1665.32 1275.98 1647.21 1275.98 1636.05 1264.81Z" fill="#FFD893"/>
<path opacity="0.5" d="M1637.8 1263.05C1627.6 1252.84 1627.57 1236.33 1637.78 1226.13C1647.96 1215.91 1664.52 1215.91 1674.72 1226.13C1684.91 1236.33 1684.91 1252.84 1674.72 1263.05C1664.52 1273.25 1647.99 1273.25 1637.8 1263.05Z" fill="#FFDC9C"/>
<path opacity="0.58" d="M1639.56 1261.29C1630.33 1252.05 1630.3 1237.12 1639.54 1227.89C1648.74 1218.65 1663.73 1218.65 1672.96 1227.89C1682.17 1237.12 1682.17 1252.05 1672.96 1261.29C1663.73 1270.52 1648.77 1270.52 1639.56 1261.29Z" fill="#FFE0A4"/>
<path opacity="0.67" d="M1641.32 1259.53C1633.06 1251.27 1633.04 1237.9 1641.3 1229.65C1649.53 1221.38 1662.94 1221.38 1671.2 1229.65C1679.43 1237.91 1679.43 1251.27 1671.2 1259.53C1662.94 1267.79 1649.55 1267.79 1641.32 1259.53Z" fill="#FFE5AD"/>
<path opacity="0.75" d="M1643.08 1257.77C1635.79 1250.48 1635.79 1238.71 1643.07 1231.41C1650.34 1224.12 1662.16 1224.11 1669.44 1231.41C1676.7 1238.7 1676.7 1250.48 1669.44 1257.77C1662.15 1265.06 1650.34 1265.06 1643.08 1257.77Z" fill="#FFE9B6"/>
<path opacity="0.83" d="M1644.84 1256.01C1638.51 1249.69 1638.52 1239.5 1644.84 1233.17C1651.16 1226.84 1661.37 1226.84 1667.69 1233.17C1673.97 1239.49 1673.97 1249.69 1667.69 1256.01C1661.37 1262.33 1651.13 1262.33 1644.85 1256.01H1644.84Z" fill="#FFEDBF"/>
<path opacity="0.92" d="M1646.6 1254.25C1641.26 1248.89 1641.26 1240.29 1646.6 1234.93C1651.94 1229.57 1660.58 1229.57 1665.93 1234.93C1671.24 1240.28 1671.24 1248.91 1665.93 1254.25C1660.58 1259.6 1651.93 1259.59 1646.61 1254.25H1646.6Z" fill="#FFF2C8"/>
<path d="M1648.36 1252.49C1643.97 1248.11 1643.97 1241.06 1648.36 1236.68C1652.69 1232.29 1659.79 1232.29 1664.17 1236.68C1668.5 1241.06 1668.5 1248.11 1664.17 1252.49C1659.79 1256.87 1652.7 1256.87 1648.36 1252.49Z" fill="#FFF6D1"/>
<path d="M1230.23 1614.8C1228.66 1608.7 1232.36 1602.39 1238.56 1600.8C1244.74 1599.19 1251.05 1602.84 1252.62 1608.88C1254.23 1615.02 1250.52 1621.27 1244.38 1622.92C1238.18 1624.53 1231.85 1620.9 1230.23 1614.8Z" fill="#B00F0F"/>
<path d="M1226.75 1630.78C1224.07 1620.63 1230.13 1610.19 1240.32 1607.54C1250.5 1604.87 1260.91 1610.96 1263.56 1621.11C1266.24 1631.31 1260.14 1641.68 1249.97 1644.4C1239.77 1647.08 1229.39 1640.93 1226.75 1630.78Z" fill="url(#paint13_radial_174_2)"/>
<path opacity="0.08" d="M1207.91 1635.75C1202.5 1615.12 1214.77 1594.04 1235.39 1588.67C1255.98 1583.24 1277.07 1595.6 1282.48 1616.17C1287.89 1636.8 1275.57 1657.83 1254.96 1663.26C1234.36 1668.63 1213.29 1656.32 1207.91 1635.75Z" fill="#FFC66F"/>
<path opacity="0.17" d="M1210.32 1635.12C1205.26 1615.82 1216.74 1596.11 1236.03 1591.08C1255.29 1586 1275.02 1597.56 1280.08 1616.81C1285.14 1636.1 1273.61 1655.78 1254.34 1660.86C1235.07 1665.89 1215.36 1654.36 1210.32 1635.12Z" fill="#FFCB78"/>
<path opacity="0.25" d="M1212.72 1634.49C1208.01 1616.52 1218.7 1598.17 1236.66 1593.49C1254.58 1588.75 1272.96 1599.53 1277.67 1617.45C1282.37 1635.41 1271.65 1653.72 1253.7 1658.46C1235.75 1663.15 1217.4 1652.41 1212.72 1634.5V1634.49Z" fill="#FFCF81"/>
<path opacity="0.33" d="M1215.13 1633.86C1210.77 1617.22 1220.67 1600.24 1237.3 1595.89C1253.89 1591.5 1270.91 1601.48 1275.27 1618.08C1279.62 1634.7 1269.69 1651.66 1253.08 1656.04C1236.46 1660.38 1219.47 1650.44 1215.14 1633.86H1215.13Z" fill="#FFD38A"/>
<path opacity="0.42" d="M1217.53 1633.22C1213.52 1617.91 1222.62 1602.29 1237.93 1598.29C1253.19 1594.25 1268.84 1603.44 1272.86 1618.7C1276.86 1633.98 1267.72 1649.58 1252.44 1653.62C1237.15 1657.62 1221.51 1648.46 1217.53 1633.21V1633.22Z" fill="#FFD893"/>
<path opacity="0.5" d="M1219.94 1632.59C1216.27 1618.61 1224.59 1604.36 1238.57 1600.69C1252.49 1596.99 1266.79 1605.4 1270.45 1619.33C1274.1 1633.28 1265.75 1647.52 1251.81 1651.21C1237.85 1654.87 1223.57 1646.5 1219.94 1632.58V1632.59Z" fill="#FFDC9C"/>
<path opacity="0.58" d="M1222.35 1631.96C1219.03 1619.31 1226.56 1606.42 1239.21 1603.1C1251.8 1599.75 1264.74 1607.36 1268.05 1619.97C1271.34 1632.58 1263.79 1645.46 1251.18 1648.81C1238.55 1652.12 1225.62 1644.54 1222.34 1631.96H1222.35Z" fill="#FFE0A4"/>
<path opacity="0.67" d="M1224.75 1631.33C1221.78 1620.01 1228.51 1608.49 1239.84 1605.51C1251.1 1602.51 1262.68 1609.33 1265.64 1620.61C1268.58 1631.88 1261.82 1643.41 1250.55 1646.41C1239.25 1649.38 1227.68 1642.59 1224.75 1631.34V1631.33Z" fill="#FFE5AD"/>
<path opacity="0.75" d="M1227.16 1630.7C1224.54 1620.72 1230.48 1610.55 1240.48 1607.91C1250.4 1605.26 1260.62 1611.28 1263.24 1621.24C1265.83 1631.18 1259.86 1641.34 1249.93 1644C1239.95 1646.63 1229.74 1640.62 1227.17 1630.7H1227.16Z" fill="#FFE9B6"/>
<path opacity="0.83" d="M1229.56 1630.06C1227.29 1621.41 1232.44 1612.6 1241.11 1610.31C1249.7 1608 1258.56 1613.24 1260.83 1621.86C1263.07 1630.46 1257.89 1639.27 1249.29 1641.58C1240.64 1643.86 1231.79 1638.65 1229.56 1630.06Z" fill="#FFEDBF"/>
<path opacity="0.92" d="M1231.97 1629.43C1230.05 1622.11 1234.41 1614.67 1241.75 1612.71C1249.01 1610.75 1256.51 1615.19 1258.43 1622.49C1260.31 1629.75 1255.94 1637.22 1248.67 1639.17C1241.4 1641.12 1233.86 1636.69 1231.98 1629.43H1231.97Z" fill="#FFF2C8"/>
<path d="M1234.38 1628.8C1232.81 1622.81 1236.37 1616.73 1242.39 1615.12C1248.31 1613.51 1254.46 1617.16 1256.03 1623.13C1257.56 1629.06 1253.98 1635.15 1248.04 1636.76C1242.05 1638.36 1235.91 1634.72 1234.38 1628.8Z" fill="#FFF6D1"/>
<path d="M645.92 1614.8C647.5 1608.7 643.81 1602.39 637.61 1600.8C631.41 1599.19 625.1 1602.84 623.52 1608.88C621.92 1615.02 625.63 1621.27 631.78 1622.92C637.97 1624.53 644.3 1620.9 645.91 1614.8H645.92Z" fill="#B00F0F"/>
<path d="M649.41 1630.78C652.08 1620.63 646.02 1610.19 635.84 1607.54C625.66 1604.87 615.23 1610.96 612.59 1621.11C609.92 1631.31 616.01 1641.68 626.19 1644.4C636.37 1647.08 646.76 1640.93 649.4 1630.78H649.41Z" fill="url(#paint14_radial_174_2)"/>
<path opacity="0.08" d="M668.26 1635.75C673.65 1615.12 661.38 1594.04 640.77 1588.67C620.19 1583.24 599.08 1595.6 593.69 1616.17C588.27 1636.8 600.6 1657.83 621.19 1663.26C641.8 1668.63 662.86 1656.32 668.26 1635.75Z" fill="#FFC66F"/>
<path opacity="0.17" d="M665.85 1635.12C670.89 1615.82 659.42 1596.11 640.13 1591.08C620.88 1586 601.14 1597.56 596.09 1616.81C591.02 1636.1 602.56 1655.78 621.82 1660.86C641.1 1665.89 660.8 1654.36 665.85 1635.12Z" fill="#FFCB78"/>
<path opacity="0.25" d="M663.44 1634.49C668.14 1616.52 657.45 1598.17 639.5 1593.49C621.59 1588.75 603.2 1599.53 598.5 1617.45C593.79 1635.41 604.53 1653.72 622.46 1658.46C640.41 1663.15 658.76 1652.41 663.45 1634.5L663.44 1634.49Z" fill="#FFCF81"/>
<path opacity="0.33" d="M661.03 1633.86C665.38 1617.22 655.49 1600.24 638.86 1595.89C622.28 1591.5 605.25 1601.48 600.9 1618.08C596.54 1634.7 606.49 1651.66 623.08 1656.04C639.7 1660.38 656.69 1650.44 661.03 1633.86Z" fill="#FFD38A"/>
<path opacity="0.42" d="M658.63 1633.22C662.63 1617.91 653.53 1602.29 638.23 1598.29C622.98 1594.25 607.31 1603.44 603.3 1618.7C599.3 1633.98 608.44 1649.58 623.71 1653.62C639 1657.62 654.64 1648.46 658.62 1633.21L658.63 1633.22Z" fill="#FFD893"/>
<path opacity="0.5" d="M656.22 1632.59C659.88 1618.61 651.57 1604.36 637.59 1600.69C623.67 1596.99 609.36 1605.4 605.7 1619.33C602.05 1633.28 610.4 1647.52 624.34 1651.21C638.3 1654.87 652.58 1646.5 656.22 1632.58V1632.59Z" fill="#FFDC9C"/>
<path opacity="0.58" d="M653.81 1631.96C657.12 1619.31 649.6 1606.42 636.96 1603.1C624.37 1599.75 611.42 1607.36 608.11 1619.97C604.82 1632.58 612.37 1645.46 624.97 1648.81C637.6 1652.12 650.53 1644.54 653.81 1631.96Z" fill="#FFE0A4"/>
<path opacity="0.67" d="M651.4 1631.33C654.36 1620.01 647.64 1608.49 636.32 1605.51C625.06 1602.51 613.48 1609.33 610.51 1620.61C607.57 1631.88 614.33 1643.41 625.6 1646.41C636.9 1649.38 648.47 1642.59 651.4 1631.34V1631.33Z" fill="#FFE5AD"/>
<path opacity="0.75" d="M649 1630.7C651.62 1620.72 645.69 1610.55 635.69 1607.91C625.77 1605.26 615.54 1611.28 612.92 1621.24C610.33 1631.18 616.3 1641.34 626.23 1644C636.2 1646.63 646.42 1640.62 648.99 1630.7H649Z" fill="#FFE9B6"/>
<path opacity="0.83" d="M646.59 1630.06C648.86 1621.41 643.72 1612.6 635.06 1610.31C626.47 1608 617.6 1613.24 615.33 1621.86C613.1 1630.46 618.27 1639.27 626.87 1641.58C635.51 1643.86 644.37 1638.65 646.6 1630.06H646.59Z" fill="#FFEDBF"/>
<path opacity="0.92" d="M644.18 1629.43C646.09 1622.1 641.76 1614.67 634.42 1612.71C627.16 1610.75 619.63 1615.19 617.73 1622.49C615.83 1629.79 620.23 1637.22 627.5 1639.17C634.81 1641.12 642.3 1636.68 644.19 1629.43H644.18Z" fill="#FFF2C8"/>
<path d="M641.77 1628.8C643.34 1622.81 639.79 1616.73 633.78 1615.12C627.85 1613.51 621.7 1617.16 620.13 1623.13C618.61 1629.06 622.19 1635.15 628.12 1636.76C634.1 1638.36 640.25 1634.72 641.77 1628.8Z" fill="#FFF6D1"/>
<path d="M1230.23 229.74C1228.66 235.86 1232.36 242.14 1238.56 243.76C1244.74 245.34 1251.05 241.74 1252.62 235.66C1254.23 229.52 1250.52 223.26 1244.38 221.61C1238.18 220.03 1231.85 223.67 1230.23 229.73V229.74Z" fill="#B00F0F"/>
<path d="M1226.75 213.79C1224.07 223.94 1230.13 234.36 1240.32 237.01C1250.5 239.71 1260.91 233.61 1263.56 223.46C1266.24 213.26 1260.14 202.86 1249.97 200.16C1239.77 197.49 1229.39 203.63 1226.75 213.79Z" fill="url(#paint15_radial_174_2)"/>
<path opacity="0.08" d="M1207.91 208.81C1202.5 229.42 1214.77 250.5 1235.39 255.9C1255.98 261.32 1277.07 248.97 1282.48 228.37C1287.89 207.76 1275.57 186.71 1254.96 181.31C1234.36 175.91 1213.29 188.23 1207.91 208.82V208.81Z" fill="#FFC66F"/>
<path opacity="0.17" d="M1210.32 209.44C1205.26 228.72 1216.74 248.44 1236.03 253.49C1255.29 258.56 1275.02 247 1280.08 227.74C1285.14 208.46 1273.61 188.77 1254.34 183.71C1235.07 178.66 1215.36 190.19 1210.32 209.44Z" fill="#FFCB78"/>
<path opacity="0.25" d="M1212.72 210.07C1208.01 228.02 1218.7 246.37 1236.66 251.08C1254.58 255.8 1272.96 245.04 1277.67 227.1C1282.37 209.15 1271.65 190.82 1253.7 186.11C1235.75 181.41 1217.4 192.14 1212.72 210.07Z" fill="#FFCF81"/>
<path opacity="0.33" d="M1215.13 210.7C1210.77 227.32 1220.67 244.31 1237.3 248.67C1253.89 253.05 1270.91 243.08 1275.27 226.47C1279.62 209.85 1269.69 192.88 1253.08 188.52C1236.46 184.16 1219.47 194.11 1215.14 210.7H1215.13Z" fill="#FFD38A"/>
<path opacity="0.42" d="M1217.53 211.34C1213.52 226.63 1222.62 242.26 1237.93 246.27C1253.19 250.3 1268.84 241.13 1272.86 225.85C1276.86 210.57 1267.72 194.95 1252.44 190.93C1237.15 186.92 1221.51 196.07 1217.53 211.34Z" fill="#FFD893"/>
<path opacity="0.5" d="M1219.94 211.97C1216.27 225.93 1224.59 240.2 1238.57 243.86C1252.49 247.54 1266.79 239.17 1270.45 225.21C1274.1 211.26 1265.75 197 1251.81 193.33C1237.85 189.67 1223.57 198.03 1219.94 211.96V211.97Z" fill="#FFDC9C"/>
<path opacity="0.58" d="M1222.35 212.6C1219.03 225.23 1226.56 238.14 1239.21 241.45C1251.8 244.78 1264.74 237.2 1268.05 224.58C1271.34 211.96 1263.79 199.07 1251.18 195.74C1238.55 192.43 1225.62 200 1222.34 212.6H1222.35Z" fill="#FFE0A4"/>
<path opacity="0.67" d="M1224.75 213.23C1221.78 224.54 1228.51 236.08 1239.84 239.04C1251.1 242.03 1262.68 235.24 1265.64 223.95C1268.58 212.66 1261.82 201.13 1250.55 198.14C1239.25 195.18 1227.68 201.95 1224.75 213.22V213.23Z" fill="#FFE5AD"/>
<path opacity="0.75" d="M1227.16 213.86C1224.54 223.84 1230.48 234.01 1240.48 236.63C1250.4 239.27 1260.62 233.28 1263.24 223.31C1265.83 213.35 1259.86 203.18 1249.93 200.54C1239.95 197.92 1229.74 203.91 1227.17 213.85L1227.16 213.86Z" fill="#FFE9B6"/>
<path opacity="0.83" d="M1229.56 214.5C1227.29 223.15 1232.44 231.94 1241.11 234.24C1249.78 236.54 1258.56 231.34 1260.83 222.7C1263.07 214.07 1257.89 205.26 1249.29 202.97C1240.64 200.7 1231.79 205.89 1229.56 214.51V214.5Z" fill="#FFEDBF"/>
<path opacity="0.92" d="M1231.97 215.13C1230.06 222.45 1234.41 229.88 1241.75 231.83C1249.09 233.78 1256.52 229.38 1258.43 222.07C1260.33 214.78 1255.94 207.3 1248.67 205.38C1241.4 203.46 1233.87 207.86 1231.98 215.14L1231.97 215.13Z" fill="#FFF2C8"/>
<path d="M1234.38 215.76C1232.81 221.75 1236.37 227.84 1242.39 229.42C1248.31 231.02 1254.46 227.41 1256.03 221.43C1257.56 215.47 1253.98 209.37 1248.04 207.77C1242.05 206.2 1235.91 209.8 1234.38 215.76Z" fill="#FFF6D1"/>
<path d="M645.92 229.74C647.5 235.86 643.81 242.14 637.61 243.76C631.41 245.34 625.1 241.74 623.52 235.66C621.92 229.52 625.63 223.26 631.78 221.61C637.97 220.03 644.3 223.67 645.91 229.73L645.92 229.74Z" fill="#B00F0F"/>
<path d="M649.41 213.79C652.08 223.94 646.02 234.36 635.84 237.01C625.66 239.71 615.23 233.61 612.59 223.46C609.92 213.26 616.01 202.86 626.19 200.16C636.37 197.49 646.76 203.63 649.4 213.79H649.41Z" fill="url(#paint16_radial_174_2)"/>
<path opacity="0.08" d="M668.26 208.81C673.65 229.42 661.38 250.5 640.77 255.9C620.19 261.32 599.08 248.97 593.69 228.37C588.27 207.76 600.6 186.71 621.19 181.31C641.8 175.91 662.86 188.23 668.26 208.82V208.81Z" fill="#FFC66F"/>
<path opacity="0.17" d="M665.85 209.44C670.89 228.72 659.42 248.44 640.13 253.49C620.88 258.56 601.14 247 596.09 227.74C591.02 208.46 602.56 188.77 621.82 183.71C641.1 178.66 660.8 190.19 665.85 209.44Z" fill="#FFCB78"/>
<path opacity="0.25" d="M663.44 210.07C668.14 228.02 657.45 246.37 639.5 251.08C621.59 255.8 603.2 245.04 598.5 227.1C593.79 209.15 604.53 190.82 622.46 186.11C640.41 181.41 658.76 192.14 663.45 210.07H663.44Z" fill="#FFCF81"/>
<path opacity="0.33" d="M661.03 210.7C665.38 227.32 655.49 244.31 638.86 248.67C622.28 253.05 605.25 243.08 600.9 226.47C596.54 209.85 606.49 192.88 623.08 188.52C639.7 184.16 656.69 194.11 661.03 210.7Z" fill="#FFD38A"/>
<path opacity="0.42" d="M658.63 211.34C662.63 226.63 653.53 242.26 638.23 246.27C622.98 250.3 607.31 241.13 603.3 225.85C599.3 210.57 608.44 194.95 623.71 190.93C639 186.92 654.64 196.07 658.62 211.34H658.63Z" fill="#FFD893"/>
<path opacity="0.5" d="M656.22 211.97C659.88 225.93 651.57 240.2 637.59 243.86C623.67 247.54 609.36 239.17 605.7 225.21C602.05 211.26 610.4 197 624.34 193.33C638.3 189.67 652.58 198.03 656.22 211.96V211.97Z" fill="#FFDC9C"/>
<path opacity="0.58" d="M653.81 212.6C657.12 225.23 649.6 238.14 636.96 241.45C624.37 244.78 611.42 237.2 608.11 224.58C604.82 211.96 612.37 199.07 624.97 195.74C637.6 192.43 650.53 200 653.81 212.6Z" fill="#FFE0A4"/>
<path opacity="0.67" d="M651.4 213.23C654.36 224.54 647.64 236.08 636.32 239.04C625.06 242.03 613.48 235.24 610.51 223.95C607.57 212.66 614.33 201.13 625.6 198.14C636.9 195.18 648.47 201.95 651.4 213.22V213.23Z" fill="#FFE5AD"/>
<path opacity="0.75" d="M649 213.86C651.62 223.84 645.69 234.01 635.69 236.63C625.77 239.27 615.54 233.28 612.92 223.31C610.33 213.35 616.3 203.18 626.23 200.54C636.2 197.92 646.42 203.91 648.99 213.85L649 213.86Z" fill="#FFE9B6"/>
<path opacity="0.83" d="M646.59 214.5C648.86 223.15 643.72 231.96 635.06 234.24C626.47 236.53 617.58 231.34 615.33 222.7C613.08 214.06 618.27 205.26 626.87 202.97C635.51 200.7 644.37 205.89 646.6 214.51L646.59 214.5Z" fill="#FFEDBF"/>
<path opacity="0.92" d="M644.18 215.13C646.08 222.45 641.75 229.88 634.42 231.83C627.09 233.78 619.63 229.38 617.73 222.07C615.83 214.76 620.23 207.3 627.5 205.38C634.77 203.46 642.3 207.86 644.19 215.14L644.18 215.13Z" fill="#FFF2C8"/>
<path d="M641.77 215.76C643.34 221.75 639.79 227.84 633.78 229.42C627.85 231.02 621.7 227.41 620.13 221.43C618.61 215.47 622.19 209.37 628.12 207.77C634.1 206.2 640.25 209.8 641.77 215.76Z" fill="#FFF6D1"/>
<defs>
<linearGradient id="paint0_linear_174_2" x1="938.07" y1="1760.63" x2="938.07" y2="77.75" gradientUnits="userSpaceOnUse">
<stop stop-color="#E52F25"/>
<stop offset="1" stop-color="#FC6551"/>
</linearGradient>
<radialGradient id="paint1_radial_174_2" cx="0" cy="0" r="1" gradientUnits="userSpaceOnUse" gradientTransform="translate(1529.94 323.51) rotate(45) scale(59.8264)">
<stop offset="0.61" stop-color="#FFF7D1"/>
<stop offset="0.79" stop-color="#FFF6CF"/>
<stop offset="0.85" stop-color="#FFF2C8"/>
<stop offset="0.9" stop-color="#FFECBC"/>
<stop offset="0.93" stop-color="#FFE4AB"/>
<stop offset="0.97" stop-color="#FFD995"/>
<stop offset="0.99" stop-color="#FFCC7B"/>
<stop offset="1" stop-color="#FFC973"/>
</radialGradient>
<radialGradient id="paint2_radial_174_2" cx="0" cy="0" r="1" gradientUnits="userSpaceOnUse" gradientTransform="translate(1778.06 914.933) rotate(90) scale(59.8264 59.8264)">
<stop offset="0.61" stop-color="#FFF7D1"/>
<stop offset="0.79" stop-color="#FFF6CF"/>
<stop offset="0.85" stop-color="#FFF2C8"/>
<stop offset="0.9" stop-color="#FFECBC"/>
<stop offset="0.93" stop-color="#FFE4AB"/>
<stop offset="0.97" stop-color="#FFD995"/>
<stop offset="0.99" stop-color="#FFCC7B"/>
<stop offset="1" stop-color="#FFC973"/>
</radialGradient>
<radialGradient id="paint3_radial_174_2" cx="0" cy="0" r="1" gradientUnits="userSpaceOnUse" gradientTransform="translate(1535.3 1508.67) rotate(135) scale(59.8264)">
<stop offset="0.61" stop-color="#FFF7D1"/>
<stop offset="0.79" stop-color="#FFF6CF"/>
<stop offset="0.85" stop-color="#FFF2C8"/>
<stop offset="0.9" stop-color="#FFECBC"/>
<stop offset="0.93" stop-color="#FFE4AB"/>
<stop offset="0.97" stop-color="#FFD995"/>
<stop offset="0.99" stop-color="#FFCC7B"/>
<stop offset="1" stop-color="#FFC973"/>
</radialGradient>
<radialGradient id="paint4_radial_174_2" cx="0" cy="0" r="1" gradientUnits="userSpaceOnUse" gradientTransform="translate(943.889 1756.74) rotate(180) scale(59.8264 59.8264)">
<stop offset="0.61" stop-color="#FFF7D1"/>
<stop offset="0.79" stop-color="#FFF6CF"/>
<stop offset="0.85" stop-color="#FFF2C8"/>
<stop offset="0.9" stop-color="#FFECBC"/>
<stop offset="0.93" stop-color="#FFE4AB"/>
<stop offset="0.97" stop-color="#FFD995"/>
<stop offset="0.99" stop-color="#FFCC7B"/>
<stop offset="1" stop-color="#FFC973"/>
</radialGradient>
<radialGradient id="paint5_radial_174_2" cx="0" cy="0" r="1" gradientUnits="userSpaceOnUse" gradientTransform="translate(943.889 91.2321) rotate(180) scale(59.8264 59.8264)">
<stop offset="0.61" stop-color="#FFF7D1"/>
<stop offset="0.79" stop-color="#FFF6CF"/>
<stop offset="0.85" stop-color="#FFF2C8"/>
<stop offset="0.9" stop-color="#FFECBC"/>
<stop offset="0.93" stop-color="#FFE4AB"/>
<stop offset="0.97" stop-color="#FFD995"/>
<stop offset="0.99" stop-color="#FFCC7B"/>
<stop offset="1" stop-color="#FFC973"/>
</radialGradient>
<radialGradient id="paint6_radial_174_2" cx="0" cy="0" r="1" gradientUnits="userSpaceOnUse" gradientTransform="translate(350.123 1513.99) rotate(-135) scale(59.8264)">
<stop offset="0.61" stop-color="#FFF7D1"/>
<stop offset="0.79" stop-color="#FFF6CF"/>
<stop offset="0.85" stop-color="#FFF2C8"/>
<stop offset="0.9" stop-color="#FFECBC"/>
<stop offset="0.93" stop-color="#FFE4AB"/>
<stop offset="0.97" stop-color="#FFD995"/>
<stop offset="0.99" stop-color="#FFCC7B"/>
<stop offset="1" stop-color="#FFC973"/>
</radialGradient>
<radialGradient id="paint7_radial_174_2" cx="0" cy="0" r="1" gradientUnits="userSpaceOnUse" gradientTransform="translate(102.073 922.594) rotate(-90) scale(59.8264)">
<stop offset="0.61" stop-color="#FFF7D1"/>
<stop offset="0.79" stop-color="#FFF6CF"/>
<stop offset="0.85" stop-color="#FFF2C8"/>
<stop offset="0.9" stop-color="#FFECBC"/>
<stop offset="0.93" stop-color="#FFE4AB"/>
<stop offset="0.97" stop-color="#FFD995"/>
<stop offset="0.99" stop-color="#FFCC7B"/>
<stop offset="1" stop-color="#FFC973"/>
</radialGradient>
<radialGradient id="paint8_radial_174_2" cx="0" cy="0" r="1" gradientUnits="userSpaceOnUse" gradientTransform="translate(344.784 328.855) rotate(-45) scale(59.8264)">
<stop offset="0.61" stop-color="#FFF7D1"/>
<stop offset="0.79" stop-color="#FFF6CF"/>
<stop offset="0.85" stop-color="#FFF2C8"/>
<stop offset="0.9" stop-color="#FFECBC"/>
<stop offset="0.93" stop-color="#FFE4AB"/>
<stop offset="0.97" stop-color="#FFD995"/>
<stop offset="0.99" stop-color="#FFCC7B"/>
<stop offset="1" stop-color="#FFC973"/>
</radialGradient>
<radialGradient id="paint9_radial_174_2" cx="0" cy="0" r="1" gradientUnits="userSpaceOnUse" gradientTransform="translate(221.559 622.939) rotate(-45) scale(19.0568)">
<stop offset="0.61" stop-color="#FFF7D1"/>
<stop offset="0.79" stop-color="#FFF6CF"/>
<stop offset="0.85" stop-color="#FFF2C8"/>
<stop offset="0.9" stop-color="#FFECBC"/>
<stop offset="0.93" stop-color="#FFE4AB"/>
<stop offset="0.97" stop-color="#FFD995"/>
<stop offset="0.99" stop-color="#FFCC7B"/>
<stop offset="1" stop-color="#FFC973"/>
</radialGradient>
<radialGradient id="paint10_radial_174_2" cx="0" cy="0" r="1" gradientTransform="matrix(-13.4752 -13.4752 -13.4752 13.4752 1658.32 622.939)" gradientUnits="userSpaceOnUse">
<stop offset="0.61" stop-color="#FFF7D1"/>
<stop offset="0.79" stop-color="#FFF6CF"/>
<stop offset="0.85" stop-color="#FFF2C8"/>
<stop offset="0.9" stop-color="#FFECBC"/>
<stop offset="0.93" stop-color="#FFE4AB"/>
<stop offset="0.97" stop-color="#FFD995"/>
<stop offset="0.99" stop-color="#FFCC7B"/>
<stop offset="1" stop-color="#FFC973"/>
</radialGradient>
<radialGradient id="paint11_radial_174_2" cx="0" cy="0" r="1" gradientTransform="matrix(13.4752 13.4752 13.4752 -13.4752 221.559 1238.82)" gradientUnits="userSpaceOnUse">
<stop offset="0.61" stop-color="#FFF7D1"/>
<stop offset="0.79" stop-color="#FFF6CF"/>
<stop offset="0.85" stop-color="#FFF2C8"/>
<stop offset="0.9" stop-color="#FFECBC"/>
<stop offset="0.93" stop-color="#FFE4AB"/>
<stop offset="0.97" stop-color="#FFD995"/>
<stop offset="0.99" stop-color="#FFCC7B"/>
<stop offset="1" stop-color="#FFC973"/>
</radialGradient>
<radialGradient id="paint12_radial_174_2" cx="0" cy="0" r="1" gradientTransform="matrix(-13.4752 13.4752 -13.4752 -13.4752 1658.34 1238.85)" gradientUnits="userSpaceOnUse">
<stop offset="0.61" stop-color="#FFF7D1"/>
<stop offset="0.79" stop-color="#FFF6CF"/>
<stop offset="0.85" stop-color="#FFF2C8"/>
<stop offset="0.9" stop-color="#FFECBC"/>
<stop offset="0.93" stop-color="#FFE4AB"/>
<stop offset="0.97" stop-color="#FFD995"/>
<stop offset="0.99" stop-color="#FFCC7B"/>
<stop offset="1" stop-color="#FFC973"/>
</radialGradient>
<radialGradient id="paint13_radial_174_2" cx="0" cy="0" r="1" gradientUnits="userSpaceOnUse" gradientTransform="translate(1249.59 1620.73) rotate(165.31) scale(19.0568 19.0568)">
<stop offset="0.61" stop-color="#FFF7D1"/>
<stop offset="0.79" stop-color="#FFF6CF"/>
<stop offset="0.85" stop-color="#FFF2C8"/>
<stop offset="0.9" stop-color="#FFECBC"/>
<stop offset="0.93" stop-color="#FFE4AB"/>
<stop offset="0.97" stop-color="#FFD995"/>
<stop offset="0.99" stop-color="#FFCC7B"/>
<stop offset="1" stop-color="#FFC973"/>
</radialGradient>
<radialGradient id="paint14_radial_174_2" cx="0" cy="0" r="1" gradientUnits="userSpaceOnUse" gradientTransform="translate(630.625 1620.94) rotate(14.69) scale(19.0568 19.0568)">
<stop offset="0.61" stop-color="#FFF7D1"/>
<stop offset="0.79" stop-color="#FFF6CF"/>
<stop offset="0.85" stop-color="#FFF2C8"/>
<stop offset="0.9" stop-color="#FFECBC"/>
<stop offset="0.93" stop-color="#FFE4AB"/>
<stop offset="0.97" stop-color="#FFD995"/>
<stop offset="0.99" stop-color="#FFCC7B"/>
<stop offset="1" stop-color="#FFC973"/>
</radialGradient>
<radialGradient id="paint15_radial_174_2" cx="0" cy="0" r="1" gradientUnits="userSpaceOnUse" gradientTransform="translate(1249.61 223.103) rotate(-165.31) scale(19.0568 19.0568)">
<stop offset="0.61" stop-color="#FFF7D1"/>
<stop offset="0.79" stop-color="#FFF6CF"/>
<stop offset="0.85" stop-color="#FFF2C8"/>
<stop offset="0.9" stop-color="#FFECBC"/>
<stop offset="0.93" stop-color="#FFE4AB"/>
<stop offset="0.97" stop-color="#FFD995"/>
<stop offset="0.99" stop-color="#FFCC7B"/>
<stop offset="1" stop-color="#FFC973"/>
</radialGradient>
<radialGradient id="paint16_radial_174_2" cx="0" cy="0" r="1" gradientUnits="userSpaceOnUse" gradientTransform="translate(630.564 222.901) rotate(-14.69) scale(19.0568 19.0568)">
<stop offset="0.61" stop-color="#FFF7D1"/>
<stop offset="0.79" stop-color="#FFF6CF"/>
<stop offset="0.85" stop-color="#FFF2C8"/>
<stop offset="0.9" stop-color="#FFECBC"/>
<stop offset="0.93" stop-color="#FFE4AB"/>
<stop offset="0.97" stop-color="#FFD995"/>
<stop offset="0.99" stop-color="#FFCC7B"/>
<stop offset="1" stop-color="#FFC973"/>
</radialGradient>
</defs>
</svg>
